HIERARCHY
ROOT Hips
{
	OFFSET 0.000000 0.000000 0.000000
	CHANNELS 6 Xposition Yposition Zposition Xrotation Yrotation Zrotation
	JOINT LeftUpLeg_virtual
	{
		OFFSET 0.000000 0.000000 0.000000
		CHANNELS 3 Xrotation Yrotation Zrotation
		JOINT LeftUpLeg
		{
			OFFSET 15.427100 -6.655098 0.678600
			CHANNELS 3 Xrotation Yrotation Zrotation
			JOINT LeftLeg
			{
				OFFSET 4.081073 -39.591068 13.024000
				CHANNELS 3 Xrotation Yrotation Zrotation
				JOINT LeftFoot
				{
					OFFSET -4.081074 -37.707932 -15.979700
					CHANNELS 3 Xrotation Yrotation Zrotation
					JOINT LeftToeBase
					{
						OFFSET 5.346399 -15.068900 20.645000
						CHANNELS 3 Xrotation Yrotation Zrotation
						JOINT LeftToe_End
						{
							OFFSET 2.754700 0.931300 11.300900
							CHANNELS 3 Xrotation Yrotation Zrotation
							End Site
							{
								OFFSET 0 0 0
							}
						}
					}
				}
			}
		}
	}
	JOINT RightUpLeg_virtual
	{
		OFFSET 0.000000 0.000000 0.000000
		CHANNELS 3 Xrotation Yrotation Zrotation
		JOINT RightUpLeg
		{
			OFFSET -15.569500 -6.655098 0.678600
			CHANNELS 3 Xrotation Yrotation Zrotation
			JOINT RightLeg
			{
				OFFSET -4.081825 -39.591045 13.023800
				CHANNELS 3 Xrotation Yrotation Zrotation
				JOINT RightFoot
				{
					OFFSET 4.081824 -37.707954 -15.979600
					CHANNELS 3 Xrotation Yrotation Zrotation
					JOINT RightToeBase
					{
						OFFSET -5.346400 -15.068900 20.645000
						CHANNELS 3 Xrotation Yrotation Zrotation
						JOINT RightToe_End
						{
							OFFSET -2.754700 0.931300 11.300900
							CHANNELS 3 Xrotation Yrotation Zrotation
							End Site
							{
								OFFSET 0 0 0
							}
						}
					}
				}
			}
		}
	}
	JOINT Spine_virtual
	{
		OFFSET 0.000000 0.000000 0.000000
		CHANNELS 3 Xrotation Yrotation Zrotation
		JOINT Spine
		{
			OFFSET -0.279200 12.230698 -2.892100
			CHANNELS 3 Xrotation Yrotation Zrotation
			JOINT Spine1
			{
				OFFSET -0.232667 10.192268 -1.242267
				CHANNELS 3 Xrotation Yrotation Zrotation
				JOINT Spine1_split
				{
					OFFSET -0.232667 10.192268 -1.242267
					CHANNELS 3 Xrotation Yrotation Zrotation
					JOINT Spine2
					{
						OFFSET -0.232667 10.192268 -1.242267
						CHANNELS 3 Xrotation Yrotation Zrotation
						JOINT Neck_virtual
						{
							OFFSET 0.000000 0.000000 0.000000
							CHANNELS 3 Xrotation Yrotation Zrotation
							JOINT Neck
							{
								OFFSET -0.418800 17.814194 8.416900
								CHANNELS 3 Xrotation Yrotation Zrotation
								JOINT Head
								{
									OFFSET 0.000000 7.031097 3.806800
									CHANNELS 3 Xrotation Yrotation Zrotation
									JOINT HeadTop_End
									{
										OFFSET 0.000000 24.646606 12.978600
										CHANNELS 3 Xrotation Yrotation Zrotation
										End Site
										{
											OFFSET 0 0 0
										}
									}
								}
							}
						}
						JOINT LeftShoulder_virtual
						{
							OFFSET 0.000000 0.000000 0.000000
							CHANNELS 3 Xrotation Yrotation Zrotation
							JOINT LeftShoulder
							{
								OFFSET 8.476499 7.247704 -3.868750
								CHANNELS 3 Xrotation Yrotation Zrotation
								JOINT LeftShoulder_split
								{
									OFFSET 8.476499 7.247704 -3.868750
									CHANNELS 3 Xrotation Yrotation Zrotation
									JOINT LeftArm
									{
										OFFSET 9.308998 -2.777710 0.208600
										CHANNELS 3 Xrotation Yrotation Zrotation
										JOINT LeftForeArm
										{
											OFFSET 29.972298 0.000000 0.000000
											CHANNELS 3 Xrotation Yrotation Zrotation
											JOINT LeftHand
											{
												OFFSET 26.026505 0.000000 0.000000
												CHANNELS 3 Xrotation Yrotation Zrotation
												End Site
												{
													OFFSET 0 0 0
												}
											}
										}
									}
								}
							}
						}
						JOINT RightShoulder_virtual
						{
							OFFSET 0.000000 0.000000 0.000000
							CHANNELS 3 Xrotation Yrotation Zrotation
							JOINT RightShoulder
							{
								OFFSET -7.570500 7.247704 -3.868750
								CHANNELS 3 Xrotation Yrotation Zrotation
								JOINT RightShoulder_split
								{
									OFFSET -7.570500 7.247704 -3.868750
									CHANNELS 3 Xrotation Yrotation Zrotation
									JOINT RightArm
									{
										OFFSET -9.308998 -2.777710 0.208500
										CHANNELS 3 Xrotation Yrotation Zrotation
										JOINT RightForeArm
										{
											OFFSET -29.972300 0.000000 0.000000
											CHANNELS 3 Xrotation Yrotation Zrotation
											JOINT RightHand
											{
												OFFSET -26.026505 0.000000 0.000000
												CHANNELS 3 Xrotation Yrotation Zrotation
												End Site
												{
													OFFSET 0 0 0
												}
											}
										}
									}
								}
							}
						}
					}
				}
			}
		}
	}
}
MOTION
Frames: 4
Frame Time: 0.03333333
3.190435 84.235809 2.539379 0.000000 0.000000 0.000000 -2.409264 -49.829857 -4.224333 -28.074164 4.607049 17.155150 35.727808 -14.093751 1.040591 -8.268683 -3.919096 -7.172852 -2.379891 -3.055511 1.734315 0.000000 0.000000 0.000000 -3.066758 -47.256317 -3.620406 0.265024 -0.782677 -16.152742 25.141404 -9.803581 -0.312691 -22.836983 -3.955570 20.975407 -3.566152 0.656032 2.182148 0.000000 0.000000 0.000000 -5.083317 -49.042346 -4.932734 10.910923 7.499698 0.803784 10.948873 9.751675 -4.023397 -0.986244 1.807756 0.596292 0.000000 0.000000 0.000000 12.201083 9.541582 -4.753681 -17.070263 -3.391584 2.944568 2.195399 23.346457 -5.891941 0.000000 0.000000 0.000000 13.594206 8.855712 -3.535724 0.537729 -2.586007 -10.052857 0.780177 1.574579 2.915054 -11.360015 -4.981693 -58.337923 8.685882 -58.830141 -0.436320 0.000000 0.000000 0.000000 10.475998 9.723474 -3.130174 1.167697 17.027728 6.263260 3.541483 -0.000078 2.038326 -18.746064 -21.836902 69.032613 3.514516 47.920915 -2.628381 0.000000 0.000000 0.000000 
4.686914 84.160744 1.467175 0.000000 0.000000 0.000000 -0.064704 -51.123747 -2.638806 -30.102659 2.463105 17.710990 35.469910 -13.305547 0.742474 -7.234828 -3.328491 -5.971170 -1.283834 -2.945334 1.547765 0.000000 0.000000 0.000000 -1.375532 -47.619929 -2.491265 -1.124300 -1.148399 -17.265998 27.182386 -9.107092 -0.227590 -22.854576 -3.470436 21.535160 -1.123417 0.489477 2.101635 0.000000 0.000000 0.000000 -2.920650 -49.958599 -3.442859 10.871435 7.727831 0.899511 11.232351 9.550182 -3.992694 -0.295638 0.651003 1.322784 0.000000 0.000000 0.000000 12.613735 9.375582 -4.785625 -16.997127 -2.184512 3.430886 1.680801 24.594301 -6.289395 0.000000 0.000000 0.000000 13.750673 8.632207 -3.750734 0.249098 -3.759758 -8.895222 -0.768158 -1.440058 0.248444 -11.875901 -3.905145 -57.780682 6.163313 -52.605390 -1.721979 0.000000 0.000000 0.000000 10.498877 9.583401 -3.241861 0.721071 16.969380 6.580908 4.940476 0.111058 1.927418 -16.209460 -21.691212 68.923890 3.074969 50.402288 -2.388074 0.000000 0.000000 0.000000 
6.616366 82.788818 -0.379265 0.000000 0.000000 0.000000 3.492041 -51.916961 0.712297 -35.402834 -0.254547 17.420973 36.684700 -11.438734 0.475620 -5.919993 -1.335375 -5.748145 0.388706 -2.675543 0.923709 0.000000 0.000000 0.000000 1.892600 -47.952129 0.407037 -7.007210 -0.376959 -19.330395 32.288176 -8.564650 -0.089193 -22.264525 -2.935322 22.042723 0.423780 0.333930 1.650922 0.000000 0.000000 0.000000 1.122061 -50.653526 0.134279 10.920812 7.773318 0.670604 11.818784 9.081089 -4.011480 -0.034034 -0.563610 0.926225 0.000000 0.000000 0.000000 13.434495 8.823549 -4.895394 -18.547256 -1.052549 4.594523 0.345585 26.993526 -7.019092 0.000000 0.000000 0.000000 14.052075 8.128484 -4.032243 -0.221864 -5.401625 -7.092472 -2.499841 -4.849044 -2.846571 -12.988926 -7.100298 -55.532751 7.471367 -45.053058 0.014728 0.000000 0.000000 0.000000 10.961342 9.108985 -3.448004 -0.093841 16.769805 7.184026 5.440402 1.111258 1.923914 -13.527626 -19.857517 67.250350 1.892448 52.602859 -1.506936 0.000000 0.000000 0.000000 
8.612639 80.311668 -2.691837 0.000000 0.000000 0.000000 8.336626 -52.027648 5.659230 -43.059585 -2.996965 15.488033 39.742866 -9.082173 0.426677 -4.213345 1.373027 -7.465338 1.389186 -2.293818 0.140117 0.000000 0.000000 0.000000 6.484874 -48.574560 5.010710 -16.658797 1.579723 -22.153218 39.917517 -8.221644 -0.024227 -21.598651 -2.225033 21.956582 1.254174 0.182703 0.954436 0.000000 0.000000 0.000000 6.869129 -50.742285 5.608240 10.843216 7.595038 0.107554 12.577559 8.340942 -4.024674 -0.757312 -1.851672 0.464177 0.000000 0.000000 0.000000 14.425179 8.011732 -4.986085 -21.519978 -0.037421 6.114757 -1.126414 30.122159 -7.925338 0.000000 0.000000 0.000000 14.447681 7.398879 -4.231486 -0.774003 -6.920532 -5.425073 -3.197575 -6.763831 -5.556420 -15.376248 -12.741200 -52.316565 10.132224 -38.374298 2.531861 0.000000 0.000000 0.000000 11.818711 8.319303 -3.686131 -1.094417 16.671365 8.229779 4.815636 2.985175 2.232960 -11.136536 -16.555231 64.189995 0.057948 53.727757 0.130115 0.000000 0.000000 0.000000 
